<?xml version="1.0" encoding="UTF-8" standalone="no"?>
<!-- Created with Inkscape (http://www.inkscape.org/) -->

<svg
   width="210.11324mm"
   height="48.97596mm"
   viewBox="0 0 210.11324 48.97596"
   version="1.1"
   id="svg1"
   inkscape:version="1.4.2 (f4327f4, 2025-05-13)"
   sodipodi:docname="Flairio-logo.svg"
   xmlns:inkscape="http://www.inkscape.org/namespaces/inkscape"
   xmlns:sodipodi="http://sodipodi.sourceforge.net/DTD/sodipodi-0.dtd"
   xmlns="http://www.w3.org/2000/svg"
   xmlns:svg="http://www.w3.org/2000/svg">
  <sodipodi:namedview
     id="namedview1"
     pagecolor="#ffffff"
     bordercolor="#000000"
     borderopacity="0.25"
     inkscape:showpageshadow="2"
     inkscape:pageopacity="0.0"
     inkscape:pagecheckerboard="0"
     inkscape:deskcolor="#d1d1d1"
     inkscape:document-units="mm"
     inkscape:zoom="0.52473018"
     inkscape:cx="121.01458"
     inkscape:cy="-168.65811"
     inkscape:window-width="1920"
     inkscape:window-height="1051"
     inkscape:window-x="-9"
     inkscape:window-y="-9"
     inkscape:window-maximized="1"
     inkscape:current-layer="layer1" />
  <defs
     id="defs1">
    <rect
       x="92.981827"
       y="103.76232"
       width="1082.0928"
       height="452.78104"
       id="rect13" />
    <rect
       x="203.48196"
       y="149.57945"
       width="505.336"
       height="226.39052"
       id="rect1" />
  </defs>
  <g
     inkscape:label="Livello 1"
     inkscape:groupmode="layer"
     id="layer1"
     transform="translate(-5.2154064e-8,-48.754387)">
    <text
       xml:space="preserve"
       transform="scale(0.26458333)"
       id="text1"
       style="font-size:64px;font-family:'Playfair Display';-inkscape-font-specification:'Playfair Display';text-align:start;writing-mode:lr-tb;direction:ltr;white-space:pre;shape-inside:url(#rect1);display:inline;fill:#2c2c2c;stroke:#2c2c2c;stroke-width:0.423307;stroke-opacity:0.172549" />
    <text
       xml:space="preserve"
       style="font-style:normal;font-variant:normal;font-weight:bold;font-stretch:normal;font-size:50.8px;line-height:0;font-family:Futura;-inkscape-font-specification:'Futura, Bold';font-variant-ligatures:normal;font-variant-caps:normal;font-variant-numeric:normal;font-variant-east-asian:normal;text-align:start;letter-spacing:0.03175px;writing-mode:lr-tb;direction:ltr;text-anchor:start;fill:#2c2c2c;stroke:#2c2c2c;stroke-width:0.112;stroke-opacity:0.172549"
       x="69.52581"
       y="160.08763"
       id="text3"><tspan
         sodipodi:role="line"
         id="tspan3"
         style="stroke-width:0.112"
         x="69.52581"
         y="160.08763" /></text>
    <text
       xml:space="preserve"
       transform="scale(0.26458333)"
       id="text13"
       style="font-style:normal;font-variant:normal;font-weight:bold;font-stretch:normal;font-size:192px;line-height:0;font-family:Futura;-inkscape-font-specification:'Futura, Bold';font-variant-ligatures:normal;font-variant-caps:normal;font-variant-numeric:normal;font-variant-east-asian:normal;text-align:start;letter-spacing:0.05px;writing-mode:lr-tb;direction:ltr;white-space:pre;shape-inside:url(#rect13);display:inline;fill:#2c2c2c;stroke:#2c2c2c;stroke-width:0.423307;stroke-opacity:0.172549" />
    <g
       id="g1">
      <rect
         style="fill:#ff0000;stroke:#2c2c2c;stroke-width:0.112;stroke-opacity:0.172549"
         id="rect14"
         width="25.132336"
         height="48.660839"
         x="0.056000054"
         y="48.810387" />
      <path
         d="m 23.620368,63.48034 v -8.4328 h -21.9964 v 38.3032 h 9.9568 v -15.0368 h 10.922 v -8.4328 h -10.922 v -6.4008 z"
         id="text4"
         style="font-weight:bold;font-size:50.8px;line-height:0;font-family:Futura;-inkscape-font-specification:'Futura, Bold';letter-spacing:0.0132292px;fill:#ffffff;stroke:#2c2c2c;stroke-width:0.112;stroke-opacity:0.172549"
         aria-label="F" />
      <rect
         style="fill:#ff0000;stroke:#2c2c2c;stroke-width:0.112;stroke-opacity:0.172549"
         id="rect15"
         width="26.538654"
         height="48.764614"
         x="26.527599"
         y="48.837898" />
      <path
         d="m 38.806326,55.04754 h -9.9568 v 38.3032 h 21.8948 v -8.4328 h -11.938 z"
         id="text5"
         style="font-weight:bold;font-size:50.8px;line-height:0;font-family:Futura;-inkscape-font-specification:'Futura, Bold';letter-spacing:0.0132292px;fill:#ffffff;stroke:#2c2c2c;stroke-width:0.112;stroke-opacity:0.172549"
         aria-label="L&#10;" />
      <rect
         style="fill:#ff0000;stroke:#2c2c2c;stroke-width:0.112;stroke-opacity:0.172549"
         id="rect16"
         width="34.161407"
         height="48.673237"
         x="54.405518"
         y="48.833908" />
      <path
         d="m 71.261856,74.681744 c 3.7592,0 5.9436,2.6924 5.9436,5.8928 0,3.302 -2.1844,5.842 -5.9436,5.842 -3.7592,0 -5.9436,-2.54 -5.9436,-5.842 0,-3.2004 2.1844,-5.8928 5.9436,-5.8928 z m 14.8844,-7.1628 h -9.2456 v 2.54 c -1.9304,-2.286 -5.08,-3.4036 -8.0772,-3.4036 -7.7216,0 -13.0556,6.4008 -13.0556,13.8684 0,7.4676 5.4356,13.9192 13.1572,13.9192 3.048,0 6.2484,-1.1684 7.874,-3.7592 h 0.1016 v 2.8956 h 9.2456 z"
         id="text7"
         style="font-weight:bold;font-size:50.8px;line-height:0;font-family:Futura;-inkscape-font-specification:'Futura, Bold';letter-spacing:0.0132292px;fill:#ffffff;stroke:#2c2c2c;stroke-width:0.112;stroke-opacity:0.172549"
         aria-label="a&#10;" />
      <rect
         style="fill:#ff0000;stroke:#2c2c2c;stroke-width:0.112;stroke-opacity:0.172549"
         id="rect17"
         width="16.003401"
         height="48.584099"
         x="89.906189"
         y="48.958965" />
      <path
         d="m 102.53065,67.70521 h -9.245552 v 26.060392 h 9.245552 z m -4.622789,-15.1892 c -2.844785,0 -5.18156,2.3368 -5.18156,5.1816 0,2.8448 2.336775,5.1816 5.18156,5.1816 2.844789,0 5.181589,-2.3368 5.181589,-5.1816 0,-2.8448 -2.3368,-5.1816 -5.181589,-5.1816 z"
         id="text9"
         style="font-weight:bold;font-size:50.8px;line-height:0;font-family:Futura;-inkscape-font-specification:'Futura, Bold';letter-spacing:0.0132292px;fill:#ffffff;stroke:#2c2c2c;stroke-width:0.112;stroke-opacity:0.172549"
         aria-label="i" />
      <rect
         style="fill:#ff0000;stroke:#2c2c2c;stroke-width:0.112;stroke-opacity:0.172549"
         id="rect18"
         width="39.754501"
         height="48.494965"
         x="107.24886"
         y="49.084019" />
      <path
         d="m 130.98355,77.653539 c 5.4356,-0.9652 8.382,-5.5372 8.382,-10.8204 0,-8.178795 -5.7404,-11.785595 -13.3096,-11.785595 h -14.8844 v 38.303192 h 9.9568 V 78.618739 h 0.1016 l 9.398,14.731997 h 12.3952 z m -9.8552,-14.986 h 0.9652 c 3.2512,0 6.9088,0.6096 6.9088,4.7752 0,4.1656 -3.6576,4.7752 -6.9088,4.7752 h -0.9652 z"
         id="text10"
         style="font-weight:bold;font-size:50.8px;line-height:0;font-family:Futura;-inkscape-font-specification:'Futura, Bold';letter-spacing:0.0132292px;fill:#ffffff;stroke:#2c2c2c;stroke-width:0.112;stroke-opacity:0.172549"
         aria-label="R" />
      <rect
         style="fill:#ff0000;stroke:#2c2c2c;stroke-width:0.112;stroke-opacity:0.172549"
         id="rect17-8"
         width="16.003401"
         height="48.494965"
         x="148.34262"
         y="49.179382" />
      <text
         xml:space="preserve"
         style="font-style:normal;font-variant:normal;font-weight:bold;font-stretch:normal;font-size:50.8px;line-height:0;font-family:Futura;-inkscape-font-specification:'Futura, Bold';font-variant-ligatures:normal;font-variant-caps:normal;font-variant-numeric:normal;font-variant-east-asian:normal;text-align:start;letter-spacing:0.0132292px;writing-mode:lr-tb;direction:ltr;text-anchor:start;fill:#ffffff;stroke:#2c2c2c;stroke-width:0.112;stroke-opacity:0.172549"
         x="148.11473"
         y="93.350731"
         id="text11"><tspan
           sodipodi:role="line"
           id="tspan11"
           style="fill:#ffffff;stroke-width:0.112"
           x="148.11473"
           y="93.350731">I</tspan></text>
      <rect
         style="fill:#ff0000;stroke:#2c2c2c;stroke-width:0.112;stroke-opacity:0.172549"
         id="rect17-1"
         width="44.371952"
         height="48.40583"
         x="165.68529"
         y="49.232601" />
      <path
         d="m 187.87126,52.719208 c -11.0236,0 -21.1836,8.127996 -21.1836,19.710396 0,12.3952 8.89,21.1328 21.1836,21.1328 12.2936,0 21.1836,-8.7376 21.1836,-21.1328 0,-11.5824 -10.16,-19.710396 -21.1836,-19.710396 z m 0,9.651996 c 5.9436,0 10.8204,4.826 10.8204,10.1092 0,6.604 -4.8768,11.43 -10.8204,11.43 -5.9436,0 -10.8204,-4.826 -10.8204,-11.43 0,-5.2832 4.8768,-10.1092 10.8204,-10.1092 z"
         id="text12"
         style="font-weight:bold;font-size:50.8px;line-height:0;font-family:Futura;-inkscape-font-specification:'Futura, Bold';letter-spacing:0.0132292px;fill:#ffffff;stroke:#2c2c2c;stroke-width:0.112;stroke-opacity:0.172549"
         aria-label="O" />
    </g>
  </g>
</svg>
